<svg xmlns="http://www.w3.org/2000/svg" viewBox="0 0 48 48" width="48" height="48">
  <defs>
    <linearGradient id="grad" x1="0%" y1="0%" x2="100%" y2="100%">
      <stop offset="0%" stop-color="#2563EB" />
      <stop offset="100%" stop-color="#1E40AF" />
    </linearGradient>
    <linearGradient id="gold" x1="0%" y1="0%" x2="100%" y2="100%">
      <stop offset="0%" stop-color="#F59E0B" />
      <stop offset="100%" stop-color="#D97706" />
    </linearGradient>
  </defs>
  <!-- Background circle with subtle shadow -->
  <rect width="48" height="48" rx="12" fill="url(#grad)" />
  <!-- Modern architectural house silhouette -->
  <path d="M24 8L8 20V40C8 41.1 8.9 42 10 42H38C39.1 42 40 41.1 40 40V20L24 8Z" fill="#ffffff" fill-opacity="0.1" />
  <!-- Crisp roofline outline -->
  <path d="M24 10L9 21.5L11.5 24.5L24 15L36.5 24.5L39 21.5L24 10Z" fill="#FFFFFF" />
  <!-- Golden peak badge -->
  <polygon points="24,14 27,20 21,20" fill="url(#gold)" />
  <!-- Windows -->
  <rect x="15" y="24" width="7" height="7" rx="1.5" fill="#FFFFFF" fill-opacity="0.9" />
  <rect x="26" y="24" width="7" height="7" rx="1.5" fill="#FFFFFF" fill-opacity="0.9" />
  <!-- Modern Doorway -->
  <rect x="20" y="33" width="8" height="9" rx="1.5" fill="url(#gold)" />
</svg>
